<?xml version="1.0" encoding="utf-8"?>
<!-- Generator: Adobe Illustrator 14.0.0, SVG Export Plug-In . SVG Version: 6.00 Build 43363)  -->
<!DOCTYPE svg PUBLIC "-//W3C//DTD SVG 1.1//EN" "http://www.w3.org/Graphics/SVG/1.1/DTD/svg11.dtd">
<svg version="1.1" xmlns="http://www.w3.org/2000/svg" xmlns:xlink="http://www.w3.org/1999/xlink" x="0px" y="0px"
	 width="274.667px" height="244.667px" viewBox="0 0 274.667 244.667" enable-background="new 0 0 274.667 244.667"
	 xml:space="preserve">
<g id="Layer_1">
	<g>
		<g>
			<g>
				<path fill="#FFFFFF" d="M138.667,42C118,42.667,108,48.667,108,48.667C98.667,32.667,84,14,62.667,16S33.333,20,22,38
					s-12,28.667,0,47.333s38.624,19.333,38.624,19.333S68,142,72.667,150s36,38.667,43.333,40.667c0,0-15.333,2.667-8.667,22
					s14,16.666,24.667,16.666s13.332,0,13.332,0"/>
				<g>
					<g>
						<g>
							<path d="M82.247,152.958c-2.371-2.216-4.718-6.144-3.369-5.919l0.242-0.639C79.48,147.586,87.06,156.068,82.247,152.958z"/>
							<path fill="#FFFFFF" d="M79.671,156.228c-1.558-2.236-0.002-0.844,0.57-0.727l2.436,2.808
								C83.115,159.449,80.8,157.319,79.671,156.228z"/>
							<path d="M72.06,160.737l0.611,1.031c-0.615-1.013-1.661-2.431-2.405-3.284c0.295-0.375,2.062,1.031,3.414,2.866
								C73.092,161.242,71.602,159.507,72.06,160.737z"/>
							<path d="M60.612,102.255c-0.089,0.169-0.126,0.35-0.109,0.54l0.067,0.293l0.064,0.151l0.02,0.039l0.002,0.005l0.001,0.002
								c2.64,2.226,0.731,0.617,1.32,1.114l-0.001,0.001l-0.008,0.008l-0.016,0.016l-0.064,0.065
								c-0.34,0.363-0.654,0.95-0.933,1.702c-0.555,1.503-0.967,3.668-1.142,6.033l-2.606-1.209c0.097-0.902,0.04-1.99-0.108-3.202
								l-0.289-1.902l-0.044-0.251l-0.023-0.127l-0.012-0.063l-0.006-0.032c7.59,6.397,2.101,1.773,3.794,3.201h-0.005l-0.01,0
								l-0.021-0.001l-0.617-0.036l-1.144-0.08c-3.022-0.225-6.229-0.582-9.019-1.186c-2.271,0.004,5.064,1.868-0.591,1.155
								c-0.552-0.473,0.029-0.928-1.077-1.409c-4.956-0.958-3.125,2.252-13.48-2.887c-1.002-0.859-1.923-1.868-2.832-2.824
								c-8.771-4.756-15.639-13.551-19.845-21.834c-4.961-8.268-6.686-20.83-2.395-29.784c-0.126-3.867,4.621-12.198,7.111-17.065
								l0.647,0.264c0.729-3.339,5.159-7.1,8.106-10.271c1.113-0.755,2.165-1.525,3.323-2.203c1.479-0.297-7.214,8.136-3.585,6.804
								c5.482-5.009,9.065-10.675,16.178-11.8c6.333-1.594,5.427-1.952,9.23-3.067c0.886-0.854-1.367-0.453-1.098-1.312
								c13.604-1.949,15.116,0.156,27.659,3c0.585-0.724,11.117,2.491,2.108-2.328c-1.666-0.239-3.241-0.656-4.914-0.681
								l-3.162-1.398c3.891,0.399,10.495,2.875,9.986,1.962c4.189,3.26,22.191,12.656,12.091,9.175
								c-4.307-4.354-6.244-5.135-10.225-6.129c12.504,6.862,18.787,17.119,24.592,25.722l2.646,1.99
								c-0.413,0.393-0.122,1.785,0.545,3.625l0.269,0.709l0.036,0.092l0.018,0.046c-2.168-0.556,4.855,1.248-4.86-1.246
								l0.005-0.002l0.009-0.004l0.019-0.009l0.038-0.017l0.261-0.111l0.453-0.174l1.776-0.612l3.683-1.13
								c2-0.985,4.758-1.642,3.952-2.006c0.385-0.459-4.15,0.634-7.778,1.964c-0.916,0.322-1.761,0.647-2.556,0.968
								c-0.103,0.043-0.184,0.071-0.335,0.146l-0.05,0.024l-0.025,0.012l-0.012,0.006l-0.006,0.003
								c12.747,3.27,3.533,0.905,6.377,1.633l-0.021-0.054l-0.041-0.106l-0.139-0.39c-0.078-0.24-0.125-0.438-0.135-0.586
								c-0.02-0.295,0.109-0.385,0.444-0.19c0.167,0.098,0.386,0.267,0.663,0.518l0.219,0.204l0.015,0.014l0.003,0.004
								c-3.561-0.914,7.976,2.05-7.982-2.048l0.016-0.012l0.065-0.05l0.134-0.102l0.185-0.151l0.778-0.61
								c12.194-5.176,24.854-4.969,32.375-3.658c-5.403,0.481-9.422,0.53-14.796,3.052c-4.675,1.262-9.388,2.71-13.895,4.828
								l-1.673,0.851l-0.418,0.239c1.5,0.612,0.275-0.055,0.546-0.02l-0.491-0.782l-1.987-3.12
								c-1.345-2.069-2.743-4.109-4.227-6.079c-5.824-7.854-13.168-15.056-21.807-18.14c-0.201-1.078-4.718-3.094-3.093-3.31
								c-1.503-1.176-6.404-1.703-7.656-2.748c-7.782,0.134-15.085,1.438-22.827,2.89c-7.687,1.453-14.833,5.878-19.072,11.053
								c3.803-1.491-4.087,6.903-5.021,10.583c-2.556,2.383-5.155,7.688-6.64,11.707c0.139,0.567-0.563,3.104,0.177,2.669
								c0.753-3.018,1.623-3.914,3.214-6.667c0.749,1.795-3.102,6.038-3.974,10.705c-0.179-0.854-0.164-1.699-0.246-2.58
								c-2.646,7.334-2.562,18.361,2.44,24.242c-0.53-2.067-0.918-4.153-1.201-6.207c3.572,7.893,8.386,18.635,15.032,21.082
								c-4.57-3.618-10.514-11.396-8.723-12.326c1.144-0.134,4.329,5.454,6.333,7.654C37.353,99.532,49.886,98.556,60.612,102.255z"
								/>
							<path d="M43.786,95.151c-9.394-4.375-6.374,0.567-14.415-5.947c1.583,0.108-1.257-3.886-2.873-6.568
								c-2.375-2.561-4.073-6.392-5.289-9c-0.498-1.895,0.569-2.092,2.311,1.292C26.167,85.798,35.988,90.425,43.786,95.151z"/>
							<path fill="#FFFFFF" d="M51.432,103.391c-5.754-1.234-2.96-2.946-8.454-4.14c2.663-0.445,2.885,1.107,7.993,2.284
								c-1.028,0.011-2.068,0.022-3.1-0.04C49.021,102.189,50.223,102.764,51.432,103.391z"/>
							<path d="M19.177,73.242c-1.867-3.161-2.49-10.967-0.764-11.072c0.126-0.449,0.739,0.295,0.572-1.365
								C17.957,63.348,19.986,71.271,19.177,73.242z"/>
							<path fill="#FFFFFF" d="M22.869,90.132c-1.536-1.613-2.992-3.484-4.648-6.264C19.5,85.589,21.465,87.456,22.869,90.132z"/>
							<path d="M15.19,69.73c-0.804,0.986-1.082-2.974-1.128-4c0.068-0.748,0.034-1.476,0.189-2.207
								C14.604,65.546,15.261,67.971,15.19,69.73z"/>
							<path d="M24.314,41.48c3.059-4.249-1.697,5.305,1.666,0.104c-0.558,1.039-1.181,2.069-1.686,3.11l-2.012,0.356
								C22.917,43.852,23.589,42.66,24.314,41.48z"/>
							<path d="M29.853,35.69c0.573-1.332,1.347-2.658,3.236-4.203l-0.454,1.367C32.234,33.695,31.024,34.092,29.853,35.69z"/>
							<path d="M23.066,39.333c1.074-2.374,1.563-1.605,2.722-2.792C25.615,37.57,21.806,41.604,23.066,39.333z"/>
							<path d="M36.732,13.097c-2.26,2.231-8.156,4.894-11.778,9.34C28.662,18.29,30.462,15.824,36.732,13.097z"/>
							<path d="M110.223,178.521c1.344,1.678,3.53,2.947,4.806,3.38l-0.556-0.945C113.081,180.184,111.649,179.417,110.223,178.521z
								"/>
							<path d="M87.88,156.485c-2.683-0.663,0.566,1.783,2.879,5.698c3.904,4.367,9.153,7.737,13.385,11.627l3.163,1.683
								C102.479,170.675,94.007,161.93,87.88,156.485z"/>
							<path fill="#FFFFFF" d="M79.398,158.299c2.482,3.712,7.231,7.072,9.531,9.285c-3.703-3.913-8.443-9.013-10.825-11.9
								C77.524,155.561,78.811,157.327,79.398,158.299z"/>
							<path d="M120.686,220.895c-2.4-0.747-6.26-12.061-8.088-16.67c-0.092,2.614-0.636,2.744,0.7,7.731
								c-3.215-3.079-2.097-7.946-1.257-10.591c-0.877,2.506-1.419-1.273,0.021-3.184c0.745-0.765,1.788-1.516,3.146-2.087
								l1.035-0.387l0.494-0.133c0.037-0.006,0.214-0.051,0.129-0.029l-0.013,0.002h-0.001c0.437-17.582,0.126-4.899,0.226-8.835
								l0.018-0.088l0.036-0.176c0.035-0.189,0.129-0.57,0.124-0.6l-0.072-0.048c-0.235-0.09-1.127-0.599-1.983-1.142
								c-3.57-2.375-7.596-5.709-11.118-8.783c-3.589-2.09-12.45-12.261-12.375-9.57c-4.228-3.988-3.733-5.606-6.349-8.997
								c-5.071-3.998-8.591-8.767-8.798-13.244c-0.906-5.383-1.526-11.381-4.499-17.692c1.31,0.552-0.444-6.037-0.927-8.667
								c-0.617-2.847-1.612-7.659-2.605-11.33c-0.248-0.917-0.498-1.763-0.742-2.486l-0.181-0.511l-0.022-0.06l-0.006-0.015
								l-0.002-0.007c-3.021-2.546,6.758,5.694-6.772-5.71l-0.002,0l-0.015,0.004l-0.061,0.018l-0.154,0.036L59.875,97.8
								c-0.852,0.216-1.16,0.586-0.528,1.18c0.414,0.223,0.96,0.379,1.369,0.476l0.035,0.009l0.002,0
								c-1.081-0.912,9.419,7.941,4.975,4.195l0,0.007l0.001,0.014l0.002,0.028l0.01,0.115l0.023,0.232l0.062,0.483l0.176,1.01
								c0.276,1.384,0.708,2.902,1.159,4.483c0.898,3.165,1.891,6.57,1.868,9.707c0.088,10.79-3.312-10.53-5.159-10.334
								c0.664,1.429-0.837,2.62,0.765,7.081c-2.994-9.591-1.205,4.509-3.454-0.254c1.391,11.491,1.177,10.426,0.202,16.745
								c2.157,6.694,3.335,4.35,4.751,6.022c1.513,3.442,2.118,6.655,3.094,9.931c1.015,3.591,3.082,6.448,5.281,8.702
								c-5.596-1.749,5.493,9.853,11.034,14.946c6.964,6.945,4.169,0.445,11.578,7.66c2.835,4.586-9.033-5.728-5.073,0.042
								l3.966,2.797c3.077,1.179,5.908,1.65,9.251,3.336c1.703,1.36,4.371,3.321,4.217,3.726c-3.791-2.191-3.567-0.535,0.041,2.804
								c2.299,0.871,2.896,1.102,4.55,1.242c-2.67-2.001-2.247-2.632-1.844-2.498c0.351,0.061,0.717,0.351,1.653,0.705
								c0.435,0.18,0.926,0.385,1.464,0.602l0.012,0.005c-0.044,1.028,0.423-8.944,0.221-4.722l-0.008,0.001l-0.033,0.006
								l-0.067,0.012l-0.134,0.026l-0.217,0.048l-0.432,0.1l-0.855,0.24c-4.812,0.878-10.289,7.152-9.62,11.029
								c0.076,9.858,1.602,11.697,0.88,14.533c0.112,2.509-1.47,5.51,5.476,13.634c-0.814-3.549,1.03-0.508,5.528,1.977
								c4.826,2.537,11.035,1.764,13.676,1.269c4.75,0.006,6.568,0.84,9.928,1.71c1.33-0.308,5.063-0.468,5.63-1.013
								c-1.35-1.882-4.828-3.709-9.784-5.456c-4.339-1.921-13.728-2.77-14.527-5.577
								C120.866,220.841,120.722,220.838,120.686,220.895z"/>
						</g>
					</g>
				</g>
			</g>
		</g>
		<g>
			<g>
				<path fill="#FFFFFF" d="M145.332,229.333c10.666,0,18,2.667,24.666-16.666c6.667-19.333-8.666-22.001-8.666-22.001
					c7.334-2,38.666-32.666,43.334-40.666c4.666-8,12.042-45.333,12.042-45.333s26.624-0.667,38.624-19.333S266.666,56,255.332,38
					s-19.334-20-40.666-22c-21.334-2-36,16.667-45.334,32.667c0,0-10-6-30.666-6.667"/>
				<g>
					<g>
						<g>
							<path d="M240.115,28.605c2.192,1.223,4.93,5.049,3.711,5.062l-0.086,0.771C242.55,32.249,235.844,27.283,240.115,28.605z"/>
							<path fill="#FFFFFF" d="M242.073,24.922c1.764,1.818,0.104,0.808-0.419,0.822c-0.915-0.623-1.774-1.345-2.762-1.861
								C238.223,22.966,240.827,24.149,242.073,24.922z"/>
							<path d="M248.701,19.095l-0.899-1.003c0.919,0.999,2.346,2.289,3.199,3.157c-0.229,0.383-2.231-0.878-4.132-2.583
								C247.501,18.722,249.475,20.298,248.701,19.095z"/>
							<path d="M260.07,70.709c1.004,1.155,4.287-1.228,6.154-5.878c0.682,0.671,1.357,1.387,2.023,2.146
								c-1.533,3.647-3.505,10.597-6.253,15.356c-0.618,2.085,3.155-4.112,0.948,0.883c-0.594,0.373-0.878-0.296-1.624,0.589
								c-2.177,4.242,1.642,3.42-6.549,11.99c-1.189,0.632-2.423,1.157-3.602,1.699c-7.544,6.123-16.535,10.039-25.686,12.09
								c-2.301,0.523-4.603,0.909-7.009,1.157l-0.934,0.081l-0.528,0.035l-0.146,0.007c11.84-9.985,3.28-2.76,5.923-4.986
								l-0.002,0.013l-0.005,0.025l-0.009,0.051l-0.036,0.205l-0.293,1.598l-0.618,3.154c-0.855,4.181-1.847,8.269-3.04,12.218
								c0.499,3.125-1.849,11.283-2.585,16.521l-0.693-0.066c0.266,3.277-2.396,7.61-4.154,11.809
								c-0.816,1.286-1.744,2.403-2.732,3.399c-0.933,0.31,0.757-2.107,1.625-4.708c0.729-2.301,1.104-4.274-0.194-3.108
								c-3.478,7.155-5.887,12.007-10.537,15.753c-4.218,4.081-3.209,4.095-5.469,6.967c-0.164,1.146,1.312-0.36,1.613,0.468
								c-9.054,9.597-11.999,7.391-20.463,15.224c0.129,0.701-6.385,7.812,1.019,2.881l2.692-3.249l2.627-1.276
								c-2.34,2.155-6.951,5.928-5.935,6.096c-2.876,0.427-5.538,4.184-11.485,7.271l-0.596,0.268l-0.294,0.127l-0.018,0.008
								c0.135,3.018-1.233-26.264-0.646-13.868l0.015,0.002l0.058,0.008l0.115,0.017l0.229,0.036c0.406,0.069,0.778,0.129,1.088,0.2
								c0.63,0.133,1.191,0.278,1.659,0.431c0.964,0.28,1.614,0.617,1.911,0.81c0.573,0.48-0.351,0.261-3.584,0.229
								c-0.452-0.184-0.858-0.332-1.443-0.493l-0.137-0.034l-0.068-0.016l-0.034-0.008l-0.017-0.004
								c-0.488-10.311,0.653,14.045,0.54,11.535l0.006-0.001l0.185-0.055l0.365-0.11l0.706-0.229
								c0.912-0.308,1.84-0.676,2.247-0.927c1.006-0.546,1.972-1.071,2.576-1.578c1.293-1.021,2.271-2.062,3.335-3.601
								c-2.672,1.915-4.687,3.624-8.937,5.285l-0.402,0.141l-0.201,0.069l-0.101,0.034l-0.025,0.008l-0.013,0.004
								c0.091,2.088-0.86-18.172-0.447-9.594l0.071,0.015c0.446,0.094,0.571,0.147,0.864,0.225l1.368,0.479
								c0.87,0.342,1.692,0.755,2.49,1.199c1.59,0.908,3.029,2.085,4.292,3.416c5.273,5.782,4.832,13.268,3.654,18.444
								c0.179,1.175,0.186,2.28,0.267,3.47c-1.154,0.035-3.358,4.49-6.043,8.873c-0.772,2.079-2.727,4.434-1.855,4.197
								c1.203,1.51,8.695-16.793,6.938-7.548c-2.465,5.202-6.332,12.196-13.952,14.481c-7.221,1.718-11.563-0.287-14.948-0.848
								c4.73-0.415,9.285,0.99,14.662-2.836c4.611-2.623,6.884-7.269,8.709-11.612c1.746-4.425,3.359-9.087,3.374-13.977
								c0.081-4.868-2.582-9.806-6.953-11.798c-1.048-0.526-2.148-0.941-3.279-1.171c-0.988-0.516,1.522-0.934,1.972-1.651
								c1.868-1.282,3.538-2.815,5.132-4.361c1.029,0.259,4.843-2.576,4.281-1.038c1.659-0.634,4.699-4.128,6.365-4.136
								c9.152-10.625,22.174-20.249,28.309-32.47c-3.036,2.581,1.358-7.627,1.271-11.256c1.712-2.929,2.703-8.508,3.6-12.549
								c-0.235-0.522,0.211-3.056-0.481-2.575c-0.436,3.042-1.13,4.025-2.059,7.029c-1.152-1.597,1.631-6.525,2.7-11.084
								l0.267,2.562c0.88-3.791,2.412-7.823,3.705-11.819l0.473-1.497l0.225-0.746c-0.398,0.244,1.046-1.073-0.866,0.452l0.41,0.013
								c1.061,0.022,2.09-0.016,3.094-0.119c2.011-0.184,3.9-0.639,5.569-1.327c-2.071-0.087-4.109-0.209-6.119-0.482
								c8.344-1.371,19.35-3.295,23.805-8.391c-4.903,2.752-13.628,6.727-14.041,4.644c0.085-0.978,6.106-2.91,8.924-3.975
								C251.57,91.7,253.524,79.667,260.07,70.709z"/>
							<path d="M248.898,84.334c-6.497,6.871-1.178,5.917-9.791,11.099c0.619-1.475-4.062-0.018-7.226,0.924
								c-2.834,1.662-6.795,2.183-9.604,2.655c-1.972,0.047-1.838-1.139,1.812-1.867C234.081,97.388,243.106,89.323,248.898,84.334z
								"/>
							<path fill="#FFFFFF" d="M258.687,79.578c-2.694,4.969-3.603,2.033-6.145,6.722c0.268-2.504,1.755-2.375,4.252-6.828
								c-0.265,0.965-0.526,1.944-0.856,2.898C256.904,81.481,257.768,80.525,258.687,79.578z"/>
							<path d="M221.386,100.887c-0.839,0.17-1.978,0.295-3.188,0.344l-0.912,0.018l-0.451-0.005l-0.188-0.01l-0.023-0.001
								c-6.565,5.535-1.82,1.537-3.286,2.773l-0.001,0.003l-0.002,0.008l-0.004,0.015l-0.018,0.06l-0.033,0.119l-0.582,1.895
								c-0.813,2.454-1.746,4.455-2.441,4.432c-0.219,0.499-0.708-0.531-0.887,1.492c0.54-1.502,1.331-4.521,2.211-7.281
								l0.333-1.011l0.005-0.016c-1.015,0.854,8.841-7.452,4.671-3.936h0.002l0.006,0.001l0.021,0.003l0.042,0.007l0.085,0.014
								l0.213,0.023l0.444,0.049c0.602,0.055,1.185,0.133,1.713,0.208C220.171,100.253,221,100.494,221.386,100.887z"/>
							<path fill="#FFFFFF" d="M238.11,101.87c-1.853,1.04-3.869,1.859-6.961,2.775C233.126,103.836,235.328,102.449,238.11,101.87z
								"/>
							<path d="M217.119,103.901c0.056-0.098-1.554,3.133-1.61,4.244l-0.869,2.021C215.289,108.048,214.147,105.768,217.119,103.901
								z"/>
							<path d="M206.224,133.623c-1.716,4.9,0.11-5.535-1.626,0.367l0.759-3.458l1.854-0.879L206.224,133.623z"/>
							<path d="M202.713,140.758c-0.1,1.427-0.421,2.965-1.587,4.965l-0.078-1.398C201.142,143.46,202.121,142.62,202.713,140.758z"
								/>
							<path d="M208.036,135.303c-0.321,2.52-0.999,1.944-1.744,3.392C206.114,137.669,208.567,132.815,208.036,135.303z"/>
							<path d="M204.291,163.224c0.667-2.924,4.648-5.268,7.527-11.73C209.039,157.585,208.017,159.041,204.291,163.224z"/>
							<path d="M208.356,22.937c-1.741-0.184-3.678,0.589-4.658,1.355l0.966,0.158C205.84,23.836,207.081,23.385,208.356,22.937z"/>
							<path d="M234.971,27.53c2.224-0.592-0.647-1.371-3.992-3.425c-4.815-1.632-10.835-1.006-16.398-1.632
								c-1.147,0.174-1.954,0.485-2.902,0.703C217.242,23.929,229.77,25.585,234.971,27.53z"/>
							<path fill="#FFFFFF" d="M241.915,22.905c-3.218-3.102-9.03-3.766-11.967-4.318c5.105,1.069,11.085,4.067,13.677,6.537
								C244.196,25.14,242.728,23.642,241.915,22.905z"/>
							<path d="M163.312,54.305c0.671,0.274,1.401,0.608,1.938,0.918l0.15,0.091c0.051,0.029-0.022-0.009-0.042-0.021
								c4.749-1.219-10.633,2.727,10.646-2.734l0.003-0.005l0.006-0.009l0.012-0.019l0.023-0.038l0.048-0.075l0.388-0.604
								l0.796-1.23c1.089-1.646,2.242-3.351,3.428-5.02c2.348-3.377,4.693-6.706,6.414-10c-2.428,2.335-2.895,2.019-6.352,6.185
								c0.823-4.489,5.316-6.48,8.605-9.677c-3.021,2.414-0.106-1.863,2.435-3.984c5.023-3.695,13.619-8.09,21.726-7.26
								c3.995-0.623,16.389,2.413,14.833,0.352c5.251,1.039,5.49,2.73,8.456,4.578c10.564,3.456,10.964,16.711,18.396,25.718
								c-1.23-0.175,0.92,4.952,0.978,6.851c1.452,4.016-2.161,14.054,0.399,12.68c2.835-2.938,1.706-9.477,1.843-14.313
								c-0.015-4.549,0.873-2.475,1.761,0.999c0.912,3.433,0.359,8.094,1.262,8.364c-0.212-1.371,1.873-1.997,1.022-6.357
								c1.07,9.425,2.082-4.099,3.373,0.76c-0.467-11.956-1.337-10.696-1.326-17.312c-3.71-6.146-4.285-3.438-6.07-4.682
								c-4.551-5.559-6.094-11.688-11.613-15.878c2.888,0.628,1.375-1.912-2.615-4.747c-4-2.91-10.355-4.627-14.15-5.286
								c-9.803-1.761-3.738,1.961-13.715,0.567c-4.865-1.971,10.355-0.834,3.928-3.069l-4.689,0.136
								c-3.409,0.923-6.081,2.376-9.616,3.762c-2.213,0.342-5.378,1.326-5.595,0.974c4.041-1.777,2.63-2.536-2.302-1.638
								c-1.9,1.338-2.348,1.672-3.118,2.521c9.586-1.046-8.823,4.128-11.415,10.758c-9.561,14.745-9.48,4.377-17.899,19.797
								c1.29-0.787,1.64-0.509,1.421,0.412l-0.108,0.376l-0.035,0.103l-0.004,0.013c-3.42,0.877,4.657-1.192,3.823-0.98
								l-0.005-0.002l-0.01-0.004l-0.039-0.016l-0.08-0.034l-0.274-0.104l-1.147-0.429c-0.82-0.309-1.761-0.664-2.784-1.025
								c-4.07-1.491-9.543-2.867-12.419-2.828c-4.688-0.904-6.307-1.865-9.602-3.039c-1.354,0.151-5.076,0.167-5.651,0.676
								c2.385,3.913,13.687,7.586,23.943,14.813C163.01,54.344,163.291,54.382,163.312,54.305z"/>
						</g>
					</g>
				</g>
			</g>
		</g>
	</g>
</g>
<g id="Layer_2">
	<g>
		<path fill="#ED1C24" d="M689.333,278"/>
		<g>
			<g>
				<g opacity="0.8">
					<polyline fill="#808285" points="689.333,278 689.333,278 689.333,278 					"/>
					<polyline fill="#808285" points="689.333,278 689.333,278 689.333,278 689.333,278 689.333,278 689.333,278 689.333,278 
						689.333,278 689.333,278 689.333,278 689.333,278 689.333,278 689.333,278 689.333,278 689.333,278 689.333,278 689.333,278 
											"/>
					<polyline fill="#808285" points="689.333,278 689.333,278 689.333,278 					"/>
					<polyline fill="#808285" points="689.333,278 689.333,278 689.333,278 					"/>
					<polyline fill="#808285" points="689.333,278 689.333,278 689.333,278 					"/>
					<polyline fill="#808285" points="689.333,278 689.333,278 689.333,278 689.333,278 689.333,278 689.333,278 689.333,278 
						689.333,278 689.333,278 					"/>
					<polyline fill="#808285" points="689.333,278 689.333,278 689.333,278 					"/>
					<polyline fill="#4D4D4F" points="689.333,278 689.333,278 689.333,278 					"/>
					<polyline fill="#4D4D4F" points="689.333,278 689.333,278 689.333,278 689.333,278 689.333,278 689.333,278 689.333,278 					
						"/>
					<polyline fill="#4D4D4F" points="689.333,278 689.333,278 689.333,278 689.333,278 					"/>
					<polyline fill="#4D4D4F" points="689.333,278 689.333,278 689.333,278 689.333,278 					"/>
					<polyline fill="#4D4D4F" points="689.333,278 689.333,278 689.333,278 					"/>
					<polyline fill="#4D4D4F" points="689.333,278 689.333,278 689.333,278 					"/>
					<polyline fill="#4D4D4F" points="689.333,278 689.333,278 689.333,278 					"/>
					<polyline fill="#4D4D4F" points="689.333,278 689.333,278 689.333,278 					"/>
					<polyline fill="#4D4D4F" points="689.333,278 689.333,278 689.333,278 					"/>
					<polyline fill="#4D4D4F" points="689.333,278 689.333,278 689.333,278 					"/>
					<polyline fill="#4D4D4F" points="689.333,278 689.333,278 689.333,278 					"/>
					<polyline fill="#4D4D4F" points="689.333,278 689.333,278 689.333,278 					"/>
					<polyline fill="#4D4D4F" points="689.333,278 689.333,278 689.333,278 689.333,278 					"/>
					<polyline fill="#4D4D4F" points="689.333,278 689.333,278 689.333,278 					"/>
					<polyline fill="#4D4D4F" points="689.333,278 689.333,278 689.333,278 					"/>
					<polyline fill="#4D4D4F" points="689.333,278 689.333,278 689.333,278 					"/>
					<polyline fill="#4D4D4F" points="689.333,278 689.333,278 689.333,278 					"/>
					<polyline fill="#4D4D4F" points="689.333,278 689.333,278 689.333,278 689.333,278 689.333,278 689.333,278 689.333,278 
						689.333,278 					"/>
					<polyline fill="#4D4D4F" points="689.333,278 689.333,278 689.333,278 689.333,278 689.333,278 689.333,278 					"/>
					<polyline fill="#4D4D4F" points="689.333,278 689.333,278 689.333,278 					"/>
					<polyline fill="#4D4D4F" points="689.333,278 689.333,278 689.333,278 689.333,278 689.333,278 689.333,278 689.333,278 
						689.333,278 689.333,278 689.333,278 					"/>
					<polyline fill="#4D4D4F" points="689.333,278 689.333,278 689.333,278 					"/>
					<polyline fill="#4D4D4F" points="689.333,278 689.333,278 689.333,278 					"/>
					<path fill="#4D4D4F" d="M689.333,278L689.333,278L689.333,278L689.333,278L689.333,278L689.333,278L689.333,278L689.333,278
						L689.333,278L689.333,278L689.333,278L689.333,278L689.333,278L689.333,278L689.333,278L689.333,278L689.333,278L689.333,278
						L689.333,278L689.333,278L689.333,278L689.333,278L689.333,278L689.333,278L689.333,278L689.333,278L689.333,278L689.333,278
						L689.333,278L689.333,278L689.333,278L689.333,278L689.333,278L689.333,278L689.333,278L689.333,278L689.333,278L689.333,278
						L689.333,278 M689.333,278L689.333,278L689.333,278 M689.333,278L689.333,278L689.333,278"/>
					<polyline fill="#171717" points="689.333,278 689.333,278 689.333,278 					"/>
					<polyline fill="#171717" points="689.333,278 689.333,278 689.333,278 689.333,278 689.333,278 					"/>
					<polyline fill="#171717" points="689.333,278 689.333,278 689.333,278 					"/>
					<polyline fill="#4D4D4F" points="689.333,278 689.333,278 689.333,278 689.333,278 					"/>
					<polyline fill="#171717" points="689.333,278 689.333,278 689.333,278 689.333,278 689.333,278 					"/>
					<polyline fill="#4D4D4F" points="689.333,278 689.333,278 689.333,278 					"/>
					<polyline fill="#4D4D4F" points="689.333,278 689.333,278 689.333,278 					"/>
					<polyline fill="#4D4D4F" points="689.333,278 689.333,278 689.333,278 689.333,278 689.333,278 689.333,278 689.333,278 					
						"/>
					<polyline fill="#4D4D4F" points="689.333,278 689.333,278 689.333,278 					"/>
					<polyline fill="#171717" points="689.333,278 689.333,278 689.333,278 					"/>
					<polyline fill="#171717" points="689.333,278 689.333,278 689.333,278 					"/>
					<polyline fill="#4D4D4F" points="689.333,278 689.333,278 689.333,278 689.333,278 689.333,278 689.333,278 689.333,278 
						689.333,278 689.333,278 689.333,278 					"/>
					<polyline fill="#4D4D4F" points="689.333,278 689.333,278 689.333,278 689.333,278 689.333,278 					"/>
					<polyline fill="#171717" points="689.333,278 689.333,278 689.333,278 689.333,278 689.333,278 					"/>
					<polyline fill="#171717" points="689.333,278 689.333,278 689.333,278 689.333,278 					"/>
					<polyline fill="#4D4D4F" points="689.333,278 689.333,278 689.333,278 					"/>
					<polyline fill="#4D4D4F" points="689.333,278 689.333,278 689.333,278 					"/>
					<polyline fill="#4D4D4F" points="689.333,278 689.333,278 689.333,278 689.333,278 689.333,278 					"/>
					<polyline fill="#4D4D4F" points="689.333,278 689.333,278 689.333,278 					"/>
					<polyline fill="#4D4D4F" points="689.333,278 689.333,278 689.333,278 					"/>
					<polyline fill="#4D4D4F" points="689.333,278 689.333,278 689.333,278 689.333,278 689.333,278 					"/>
					<polyline fill="#4D4D4F" points="689.333,278 689.333,278 689.333,278 689.333,278 689.333,278 689.333,278 689.333,278 
						689.333,278 689.333,278 689.333,278 689.333,278 689.333,278 689.333,278 689.333,278 689.333,278 689.333,278 					"/>
					<polyline fill="#4D4D4F" points="689.333,278 689.333,278 689.333,278 					"/>
					<polyline fill="#171717" points="689.333,278 689.333,278 689.333,278 					"/>
					<polyline fill="#4D4D4F" points="689.333,278 689.333,278 689.333,278 689.333,278 689.333,278 					"/>
					<polyline fill="#171717" points="689.333,278 689.333,278 689.333,278 689.333,278 					"/>
					<polyline fill="#171717" points="689.333,278 689.333,278 689.333,278 689.333,278 					"/>
					<polyline fill="#4D4D4F" points="689.333,278 689.333,278 689.333,278 					"/>
					<polyline fill="#4D4D4F" points="689.333,278 689.333,278 689.333,278 					"/>
					<polyline fill="#4D4D4F" points="689.333,278 689.333,278 689.333,278 689.333,278 689.333,278 					"/>
					<polyline fill="#4D4D4F" points="689.333,278 689.333,278 689.333,278 689.333,278 689.333,278 689.333,278 689.333,278 
						689.333,278 689.333,278 689.333,278 689.333,278 689.333,278 					"/>
					<polyline fill="#171717" points="689.333,278 689.333,278 689.333,278 689.333,278 					"/>
					<polyline fill="#171717" points="689.333,278 689.333,278 689.333,278 689.333,278 689.333,278 689.333,278 					"/>
					<polyline fill="#4D4D4F" points="689.333,278 689.333,278 689.333,278 					"/>
					<polyline fill="#4D4D4F" points="689.333,278 689.333,278 689.333,278 689.333,278 					"/>
					<polyline fill="#171717" points="689.333,278 689.333,278 689.333,278 					"/>
					<polyline fill="#171717" points="689.333,278 689.333,278 689.333,278 689.333,278 					"/>
					<polyline fill="#171717" points="689.333,278 689.333,278 689.333,278 					"/>
					<polyline fill="#171717" points="689.333,278 689.333,278 689.333,278 					"/>
					<polyline fill="#4D4D4F" points="689.333,278 689.333,278 689.333,278 689.333,278 689.333,278 					"/>
					<polyline fill="#171717" points="689.333,278 689.333,278 689.333,278 689.333,278 689.333,278 					"/>
					<polyline fill="#4D4D4F" points="689.333,278 689.333,278 689.333,278 689.333,278 689.333,278 689.333,278 689.333,278 
						689.333,278 689.333,278 689.333,278 689.333,278 689.333,278 689.333,278 689.333,278 689.333,278 					"/>
					<polyline fill="#171717" points="689.333,278 689.333,278 689.333,278 					"/>
					<polyline fill="#171717" points="689.333,278 689.333,278 689.333,278 					"/>
					<polyline fill="#171717" points="689.333,278 689.333,278 689.333,278 689.333,278 689.333,278 					"/>
					<polyline fill="#171717" points="689.333,278 689.333,278 689.333,278 689.333,278 689.333,278 					"/>
					<polyline fill="#171717" points="689.333,278 689.333,278 689.333,278 					"/>
					<polyline fill="#171717" points="689.333,278 689.333,278 689.333,278 					"/>
					<polyline fill="#171717" points="689.333,278 689.333,278 689.333,278 689.333,278 					"/>
					<polyline fill="#4D4D4F" points="689.333,278 689.333,278 689.333,278 689.333,278 689.333,278 689.333,278 689.333,278 
						689.333,278 689.333,278 689.333,278 689.333,278 689.333,278 689.333,278 689.333,278 689.333,278 689.333,278 689.333,278 
						689.333,278 					"/>
					<polyline fill="#171717" points="689.333,278 689.333,278 689.333,278 689.333,278 689.333,278 689.333,278 689.333,278 
						689.333,278 689.333,278 					"/>
					<polyline fill="#4D4D4F" points="689.333,278 689.333,278 689.333,278 					"/>
					<polyline fill="#171717" points="689.333,278 689.333,278 689.333,278 689.333,278 					"/>
					<polyline fill="#040404" points="689.333,278 689.333,278 689.333,278 689.333,278 689.333,278 					"/>
					<polyline fill="#171717" points="689.333,278 689.333,278 689.333,278 689.333,278 689.333,278 					"/>
					<polyline fill="#040404" points="689.333,278 689.333,278 689.333,278 689.333,278 689.333,278 					"/>
					<polyline fill="#040404" points="689.333,278 689.333,278 689.333,278 					"/>
					<polyline fill="#171717" points="689.333,278 689.333,278 689.333,278 					"/>
					<polyline fill="#171717" points="689.333,278 689.333,278 689.333,278 689.333,278 					"/>
					<polyline fill="#171717" points="689.333,278 689.333,278 689.333,278 					"/>
					<polyline fill="#171717" points="689.333,278 689.333,278 689.333,278 					"/>
					<polyline fill="#4D4D4F" points="689.333,278 689.333,278 689.333,278 689.333,278 689.333,278 689.333,278 689.333,278 
						689.333,278 689.333,278 689.333,278 689.333,278 689.333,278 					"/>
					<polyline fill="#171717" points="689.333,278 689.333,278 689.333,278 689.333,278 689.333,278 					"/>
					<polyline fill="#171717" points="689.333,278 689.333,278 689.333,278 					"/>
					<polyline fill="#171717" points="689.333,278 689.333,278 689.333,278 689.333,278 689.333,278 					"/>
					<polyline fill="#171717" points="689.333,278 689.333,278 689.333,278 					"/>
					<polyline fill="#171717" points="689.333,278 689.333,278 689.333,278 					"/>
					<polyline fill="#4D4D4F" points="689.333,278 689.333,278 689.333,278 					"/>
					<polyline fill="#4D4D4F" points="689.333,278 689.333,278 689.333,278 					"/>
					<polyline fill="#4D4D4F" points="689.333,278 689.333,278 689.333,278 689.333,278 					"/>
					<polyline fill="#171717" points="689.333,278 689.333,278 689.333,278 					"/>
					<polyline fill="#171717" points="689.333,278 689.333,278 689.333,278 					"/>
					<polyline fill="#4D4D4F" points="689.333,278 689.333,278 689.333,278 689.333,278 689.333,278 					"/>
					<polyline fill="#171717" points="689.333,278 689.333,278 689.333,278 689.333,278 689.333,278 689.333,278 689.333,278 
						689.333,278 689.333,278 					"/>
					<polyline fill="#040404" points="689.333,278 689.333,278 689.333,278 689.333,278 					"/>
					<polyline fill="#4D4D4F" points="689.333,278 689.333,278 689.333,278 					"/>
					<polyline fill="#4D4D4F" points="689.333,278 689.333,278 689.333,278 689.333,278 					"/>
					<polyline fill="#4D4D4F" points="689.333,278 689.333,278 689.333,278 					"/>
					<polyline fill="#4D4D4F" points="689.333,278 689.333,278 689.333,278 689.333,278 					"/>
					<polyline fill="#4D4D4F" points="689.333,278 689.333,278 689.333,278 					"/>
					<polyline fill="#4D4D4F" points="689.333,278 689.333,278 689.333,278 					"/>
					<polyline fill="#4D4D4F" points="689.333,278 689.333,278 689.333,278 689.333,278 689.333,278 					"/>
					<polyline fill="#4D4D4F" points="689.333,278 689.333,278 689.333,278 689.333,278 689.333,278 689.333,278 689.333,278 
						689.333,278 689.333,278 689.333,278 					"/>
					<polyline fill="#4D4D4F" points="689.333,278 689.333,278 689.333,278 					"/>
					<polyline fill="#4D4D4F" points="689.333,278 689.333,278 689.333,278 					"/>
					<polyline fill="#4D4D4F" points="689.333,278 689.333,278 689.333,278 					"/>
					<polyline fill="#4D4D4F" points="689.333,278 689.333,278 689.333,278 					"/>
					<polyline fill="#4D4D4F" points="689.333,278 689.333,278 689.333,278 689.333,278 					"/>
					<polyline fill="#4D4D4F" points="689.333,278 689.333,278 689.333,278 689.333,278 					"/>
					<polyline fill="#171717" points="689.333,278 689.333,278 689.333,278 689.333,278 					"/>
					<polyline fill="#171717" points="689.333,278 689.333,278 689.333,278 689.333,278 689.333,278 					"/>
					<polyline fill="#171717" points="689.333,278 689.333,278 689.333,278 					"/>
					<polyline fill="#4D4D4F" points="689.333,278 689.333,278 689.333,278 689.333,278 					"/>
					<polyline fill="#4D4D4F" points="689.333,278 689.333,278 689.333,278 					"/>
					<polyline fill="#4D4D4F" points="689.333,278 689.333,278 689.333,278 					"/>
					<polyline fill="#4D4D4F" points="689.333,278 689.333,278 689.333,278 					"/>
					<path fill="#939598" d="M689.333,278L689.333,278L689.333,278L689.333,278L689.333,278L689.333,278L689.333,278 M689.333,278
						L689.333,278L689.333,278"/>
					<polyline fill="#939598" points="689.333,278 689.333,278 689.333,278 					"/>
					<polyline fill="#939598" points="689.333,278 689.333,278 689.333,278 					"/>
					<polyline fill="#4D4D4F" points="689.333,278 689.333,278 689.333,278 					"/>
					<polyline fill="#4D4D4F" points="689.333,278 689.333,278 689.333,278 					"/>
					<polyline fill="#4D4D4F" points="689.333,278 689.333,278 689.333,278 					"/>
					<polyline fill="#4D4D4F" points="689.333,278 689.333,278 689.333,278 					"/>
					<polyline fill="#4D4D4F" points="689.333,278 689.333,278 689.333,278 					"/>
					<polyline fill="#4D4D4F" points="689.333,278 689.333,278 689.333,278 					"/>
					<polyline fill="#4D4D4F" points="689.333,278 689.333,278 689.333,278 689.333,278 689.333,278 					"/>
					<polyline fill="#4D4D4F" points="689.333,278 689.333,278 689.333,278 689.333,278 					"/>
					<polyline fill="#4D4D4F" points="689.333,278 689.333,278 689.333,278 					"/>
					<polyline fill="#4D4D4F" points="689.333,278 689.333,278 689.333,278 					"/>
					<polyline fill="#4D4D4F" points="689.333,278 689.333,278 689.333,278 					"/>
					<polyline fill="#4D4D4F" points="689.333,278 689.333,278 689.333,278 689.333,278 689.333,278 					"/>
					<polyline fill="#4D4D4F" points="689.333,278 689.333,278 689.333,278 					"/>
					<polyline fill="#4D4D4F" points="689.333,278 689.333,278 689.333,278 689.333,278 					"/>
					<polyline fill="#4D4D4F" points="689.333,278 689.333,278 689.333,278 					"/>
					<polyline fill="#4D4D4F" points="689.333,278 689.333,278 689.333,278 					"/>
					<polyline fill="#4D4D4F" points="689.333,278 689.333,278 689.333,278 					"/>
					<polyline fill="#4D4D4F" points="689.333,278 689.333,278 689.333,278 689.333,278 689.333,278 					"/>
					<polyline fill="#4D4D4F" points="689.333,278 689.333,278 689.333,278 					"/>
					<polyline fill="#939598" points="689.333,278 689.333,278 689.333,278 					"/>
					<polyline fill="#939598" points="689.333,278 689.333,278 689.333,278 689.333,278 689.333,278 689.333,278 689.333,278 
						689.333,278 689.333,278 689.333,278 689.333,278 689.333,278 689.333,278 					"/>
					<polyline fill="#363537" points="689.333,278 689.333,278 689.333,278 689.333,278 689.333,278 					"/>
					<polyline fill="#363537" points="689.333,278 689.333,278 689.333,278 					"/>
					<polyline fill="#939598" points="689.333,278 689.333,278 689.333,278 					"/>
					<polyline fill="#939598" points="689.333,278 689.333,278 689.333,278 					"/>
					<polyline fill="#4D4D4F" points="689.333,278 689.333,278 689.333,278 689.333,278 689.333,278 689.333,278 689.333,278 
						689.333,278 					"/>
					<polyline fill="#4D4D4F" points="689.333,278 689.333,278 689.333,278 					"/>
					<polyline fill="#4D4D4F" points="689.333,278 689.333,278 689.333,278 					"/>
					<polyline fill="#4D4D4F" points="689.333,278 689.333,278 689.333,278 					"/>
					<polyline fill="#4D4D4F" points="689.333,278 689.333,278 689.333,278 689.333,278 689.333,278 689.333,278 689.333,278 
						689.333,278 689.333,278 689.333,278 					"/>
					<polyline fill="#4D4D4F" points="689.333,278 689.333,278 689.333,278 689.333,278 					"/>
					<path fill="#4D4D4F" d="M689.333,278L689.333,278L689.333,278L689.333,278L689.333,278L689.333,278L689.333,278L689.333,278
						L689.333,278L689.333,278L689.333,278 M689.333,278L689.333,278L689.333,278L689.333,278L689.333,278"/>
					<polyline fill="#4D4D4F" points="689.333,278 689.333,278 689.333,278 					"/>
					<polyline fill="#171717" points="689.333,278 689.333,278 689.333,278 					"/>
					<polyline fill="#171717" points="689.333,278 689.333,278 689.333,278 					"/>
					<polyline fill="#4D4D4F" points="689.333,278 689.333,278 689.333,278 689.333,278 689.333,278 689.333,278 689.333,278 
						689.333,278 689.333,278 689.333,278 689.333,278 689.333,278 689.333,278 689.333,278 689.333,278 689.333,278 689.333,278 
						689.333,278 689.333,278 689.333,278 689.333,278 689.333,278 689.333,278 689.333,278 689.333,278 689.333,278 689.333,278 
						689.333,278 689.333,278 					"/>
					<polyline fill="#171717" points="689.333,278 689.333,278 689.333,278 689.333,278 689.333,278 					"/>
					<polyline fill="#171717" points="689.333,278 689.333,278 689.333,278 					"/>
					<polyline fill="#171717" points="689.333,278 689.333,278 689.333,278 					"/>
					<polyline fill="#171717" points="689.333,278 689.333,278 689.333,278 					"/>
					<polyline fill="#171717" points="689.333,278 689.333,278 689.333,278 689.333,278 689.333,278 					"/>
					<polyline fill="#171717" points="689.333,278 689.333,278 689.333,278 					"/>
					<polyline fill="#171717" points="689.333,278 689.333,278 689.333,278 689.333,278 689.333,278 689.333,278 689.333,278 					
						"/>
					<polyline fill="#4D4D4F" points="689.333,278 689.333,278 689.333,278 					"/>
					<polyline fill="#171717" points="689.333,278 689.333,278 689.333,278 					"/>
					<polyline fill="#171717" points="689.333,278 689.333,278 689.333,278 					"/>
					<polyline fill="#4D4D4F" points="689.333,278 689.333,278 689.333,278 					"/>
					<polyline fill="#4D4D4F" points="689.333,278 689.333,278 689.333,278 					"/>
					<polyline fill="#4D4D4F" points="689.333,278 689.333,278 689.333,278 689.333,278 689.333,278 					"/>
					<polyline fill="#4D4D4F" points="689.333,278 689.333,278 689.333,278 					"/>
					<polyline fill="#4D4D4F" points="689.333,278 689.333,278 689.333,278 					"/>
					<polyline fill="#4D4D4F" points="689.333,278 689.333,278 689.333,278 689.333,278 					"/>
					<polyline fill="#404041" points="689.333,278 689.333,278 689.333,278 689.333,278 689.333,278 689.333,278 689.333,278 
						689.333,278 689.333,278 689.333,278 689.333,278 689.333,278 689.333,278 689.333,278 					"/>
					<polyline fill="#404041" points="689.333,278 689.333,278 689.333,278 689.333,278 689.333,278 					"/>
					<polyline fill="#4D4D4F" points="689.333,278 689.333,278 689.333,278 689.333,278 					"/>
					<polyline fill="#6D6E70" points="689.333,278 689.333,278 689.333,278 					"/>
					<polyline fill="#6D6E70" points="689.333,278 689.333,278 689.333,278 689.333,278 689.333,278 689.333,278 689.333,278 
						689.333,278 689.333,278 689.333,278 689.333,278 689.333,278 689.333,278 689.333,278 689.333,278 689.333,278 689.333,278 
						689.333,278 689.333,278 689.333,278 689.333,278 689.333,278 689.333,278 689.333,278 689.333,278 689.333,278 689.333,278 
						689.333,278 689.333,278 689.333,278 689.333,278 689.333,278 689.333,278 689.333,278 689.333,278 689.333,278 689.333,278 
						689.333,278 689.333,278 689.333,278 689.333,278 689.333,278 689.333,278 689.333,278 689.333,278 689.333,278 689.333,278 
						689.333,278 689.333,278 689.333,278 689.333,278 689.333,278 689.333,278 					"/>
					<polyline fill="#1A1A1A" points="689.333,278 689.333,278 689.333,278 689.333,278 					"/>
					<polyline fill="#242425" points="689.333,278 689.333,278 689.333,278 689.333,278 689.333,278 					"/>
					<polyline fill="#6D6E70" points="689.333,278 689.333,278 689.333,278 					"/>
					<polyline fill="#6D6E70" points="689.333,278 689.333,278 689.333,278 					"/>
					<polyline fill="#6D6E70" points="689.333,278 689.333,278 689.333,278 					"/>
					<polyline fill="#6D6E70" points="689.333,278 689.333,278 689.333,278 					"/>
					<polyline fill="#6D6E70" points="689.333,278 689.333,278 689.333,278 					"/>
					<polyline fill="#4D4D4F" points="689.333,278 689.333,278 689.333,278 					"/>
					<path fill="#4D4D4F" d="M689.333,278L689.333,278L689.333,278L689.333,278L689.333,278L689.333,278L689.333,278L689.333,278
						L689.333,278L689.333,278L689.333,278L689.333,278L689.333,278L689.333,278L689.333,278L689.333,278 M689.333,278L689.333,278
						L689.333,278 M689.333,278L689.333,278L689.333,278L689.333,278L689.333,278 M689.333,278L689.333,278L689.333,278"/>
					<polyline fill="#171717" points="689.333,278 689.333,278 689.333,278 					"/>
					<polyline fill="#171717" points="689.333,278 689.333,278 689.333,278 					"/>
					<polyline fill="#4D4D4F" points="689.333,278 689.333,278 689.333,278 689.333,278 					"/>
					<polyline fill="#4D4D4F" points="689.333,278 689.333,278 689.333,278 					"/>
					<polyline fill="#4D4D4F" points="689.333,278 689.333,278 689.333,278 					"/>
					<polyline fill="#4D4D4F" points="689.333,278 689.333,278 689.333,278 689.333,278 689.333,278 689.333,278 					"/>
					<polyline opacity="0.8" fill="#808285" points="689.333,278 689.333,278 689.333,278 689.333,278 689.333,278 689.333,278 
						689.333,278 689.333,278 689.333,278 689.333,278 689.333,278 689.333,278 689.333,278 689.333,278 689.333,278 689.333,278 
						689.333,278 689.333,278 689.333,278 689.333,278 689.333,278 689.333,278 689.333,278 689.333,278 689.333,278 689.333,278 
						689.333,278 689.333,278 689.333,278 689.333,278 689.333,278 689.333,278 689.333,278 689.333,278 689.333,278 689.333,278 
						689.333,278 689.333,278 689.333,278 					"/>
					<polyline fill="#454547" points="689.333,278 689.333,278 689.333,278 689.333,278 689.333,278 689.333,278 					"/>
					<polyline fill="#454547" points="689.333,278 689.333,278 689.333,278 689.333,278 					"/>
					<polyline fill="#2D2D2E" points="689.333,278 689.333,278 689.333,278 689.333,278 689.333,278 					"/>
					<polyline fill="#2D2D2E" points="689.333,278 689.333,278 689.333,278 					"/>
					<polyline fill="#2D2D2E" points="689.333,278 689.333,278 689.333,278 689.333,278 689.333,278 					"/>
					<polyline fill="#808285" points="689.333,278 689.333,278 689.333,278 					"/>
					<polyline fill="#808285" points="689.333,278 689.333,278 689.333,278 					"/>
					<polyline fill="#808285" points="689.333,278 689.333,278 689.333,278 					"/>
					<polyline fill="#808285" points="689.333,278 689.333,278 689.333,278 					"/>
					<polyline fill="#808285" points="689.333,278 689.333,278 689.333,278 					"/>
					<polyline fill="#808285" points="689.333,278 689.333,278 689.333,278 					"/>
					<polyline fill="#808285" points="689.333,278 689.333,278 689.333,278 					"/>
					<polyline fill="#2D2D2E" points="689.333,278 689.333,278 689.333,278 					"/>
					<polyline fill="#808285" points="689.333,278 689.333,278 689.333,278 					"/>
					<polyline fill="#808285" points="689.333,278 689.333,278 689.333,278 					"/>
					<path opacity="0.8" fill="#808285" d="M689.333,278L689.333,278L689.333,278L689.333,278L689.333,278L689.333,278L689.333,278
						L689.333,278L689.333,278L689.333,278L689.333,278L689.333,278L689.333,278L689.333,278L689.333,278L689.333,278L689.333,278
						L689.333,278L689.333,278L689.333,278L689.333,278L689.333,278L689.333,278L689.333,278L689.333,278L689.333,278L689.333,278
						L689.333,278L689.333,278L689.333,278L689.333,278L689.333,278L689.333,278L689.333,278L689.333,278L689.333,278L689.333,278
						L689.333,278L689.333,278L689.333,278L689.333,278L689.333,278L689.333,278L689.333,278L689.333,278L689.333,278L689.333,278
						L689.333,278L689.333,278L689.333,278L689.333,278L689.333,278L689.333,278L689.333,278L689.333,278L689.333,278L689.333,278
						L689.333,278L689.333,278L689.333,278L689.333,278L689.333,278L689.333,278L689.333,278L689.333,278L689.333,278L689.333,278
						L689.333,278L689.333,278L689.333,278L689.333,278L689.333,278L689.333,278L689.333,278L689.333,278L689.333,278L689.333,278
						L689.333,278L689.333,278L689.333,278L689.333,278L689.333,278L689.333,278L689.333,278L689.333,278L689.333,278L689.333,278
						L689.333,278L689.333,278L689.333,278L689.333,278L689.333,278L689.333,278L689.333,278L689.333,278L689.333,278L689.333,278
						L689.333,278L689.333,278L689.333,278L689.333,278L689.333,278L689.333,278L689.333,278L689.333,278L689.333,278L689.333,278
						L689.333,278L689.333,278L689.333,278L689.333,278L689.333,278L689.333,278L689.333,278L689.333,278L689.333,278L689.333,278
						L689.333,278L689.333,278L689.333,278L689.333,278L689.333,278L689.333,278L689.333,278L689.333,278L689.333,278L689.333,278
						L689.333,278L689.333,278L689.333,278L689.333,278L689.333,278L689.333,278L689.333,278L689.333,278L689.333,278L689.333,278
						L689.333,278L689.333,278L689.333,278L689.333,278L689.333,278L689.333,278L689.333,278L689.333,278L689.333,278L689.333,278
						L689.333,278L689.333,278L689.333,278L689.333,278L689.333,278L689.333,278L689.333,278L689.333,278L689.333,278L689.333,278
						L689.333,278L689.333,278 M689.333,278L689.333,278L689.333,278 M689.333,278L689.333,278L689.333,278 M689.333,278
						L689.333,278L689.333,278L689.333,278L689.333,278L689.333,278L689.333,278L689.333,278L689.333,278L689.333,278L689.333,278
						L689.333,278L689.333,278 M689.333,278L689.333,278L689.333,278 M689.333,278L689.333,278L689.333,278 M689.333,278
						L689.333,278L689.333,278L689.333,278L689.333,278 M689.333,278L689.333,278L689.333,278 M689.333,278L689.333,278L689.333,278
						 M689.333,278L689.333,278L689.333,278L689.333,278L689.333,278L689.333,278L689.333,278L689.333,278L689.333,278 M689.333,278
						L689.333,278L689.333,278 M689.333,278L689.333,278L689.333,278L689.333,278 M689.333,278L689.333,278L689.333,278
						 M689.333,278L689.333,278L689.333,278 M689.333,278L689.333,278L689.333,278 M689.333,278L689.333,278L689.333,278
						 M689.333,278L689.333,278L689.333,278 M689.333,278L689.333,278L689.333,278 M689.333,278L689.333,278L689.333,278
						 M689.333,278L689.333,278L689.333,278 M689.333,278L689.333,278L689.333,278L689.333,278L689.333,278L689.333,278L689.333,278
						L689.333,278L689.333,278L689.333,278L689.333,278L689.333,278L689.333,278L689.333,278L689.333,278L689.333,278L689.333,278
						L689.333,278L689.333,278L689.333,278L689.333,278L689.333,278L689.333,278L689.333,278L689.333,278L689.333,278L689.333,278
						L689.333,278L689.333,278L689.333,278L689.333,278L689.333,278L689.333,278L689.333,278L689.333,278L689.333,278 M689.333,278
						L689.333,278L689.333,278L689.333,278L689.333,278L689.333,278L689.333,278L689.333,278L689.333,278L689.333,278L689.333,278
						L689.333,278L689.333,278L689.333,278L689.333,278L689.333,278L689.333,278L689.333,278L689.333,278L689.333,278L689.333,278
						L689.333,278L689.333,278L689.333,278L689.333,278L689.333,278L689.333,278L689.333,278L689.333,278L689.333,278L689.333,278
						L689.333,278L689.333,278L689.333,278L689.333,278 M689.333,278L689.333,278L689.333,278 M689.333,278L689.333,278L689.333,278
						 M689.333,278L689.333,278L689.333,278L689.333,278L689.333,278"/>
					<polyline fill="#808285" points="689.333,278 689.333,278 689.333,278 689.333,278 689.333,278 689.333,278 689.333,278 
						689.333,278 					"/>
					<polyline fill="#808285" points="689.333,278 689.333,278 689.333,278 689.333,278 689.333,278 					"/>
					<polyline fill="#808285" points="689.333,278 689.333,278 689.333,278 689.333,278 689.333,278 689.333,278 689.333,278 
						689.333,278 689.333,278 689.333,278 689.333,278 689.333,278 689.333,278 689.333,278 689.333,278 689.333,278 					"/>
					<polyline fill="#808285" points="689.333,278 689.333,278 689.333,278 689.333,278 					"/>
					<polyline fill="#4F5052" points="689.333,278 689.333,278 689.333,278 689.333,278 					"/>
					<polyline fill="#2D2D2E" points="689.333,278 689.333,278 689.333,278 					"/>
					<polyline fill="#2D2D2E" points="689.333,278 689.333,278 689.333,278 689.333,278 					"/>
					<polyline fill="#2D2D2E" points="689.333,278 689.333,278 689.333,278 					"/>
					<polyline fill="#2D2D2E" points="689.333,278 689.333,278 689.333,278 					"/>
					<polyline fill="#2D2D2E" points="689.333,278 689.333,278 689.333,278 689.333,278 689.333,278 					"/>
					<polyline fill="#2D2D2E" points="689.333,278 689.333,278 689.333,278 689.333,278 689.333,278 					"/>
					<polyline fill="#2D2D2E" points="689.333,278 689.333,278 689.333,278 					"/>
					<polyline fill="#2D2D2E" points="689.333,278 689.333,278 689.333,278 689.333,278 689.333,278 					"/>
					<polyline fill="#2F2F30" points="689.333,278 689.333,278 689.333,278 689.333,278 689.333,278 689.333,278 689.333,278 
						689.333,278 689.333,278 689.333,278 689.333,278 689.333,278 689.333,278 689.333,278 689.333,278 689.333,278 689.333,278 
											"/>
					<polyline fill="#2F2F30" points="689.333,278 689.333,278 689.333,278 689.333,278 689.333,278 689.333,278 689.333,278 
						689.333,278 689.333,278 					"/>
					<polyline fill="#2F2F30" points="689.333,278 689.333,278 689.333,278 689.333,278 689.333,278 689.333,278 689.333,278 
						689.333,278 689.333,278 689.333,278 689.333,278 689.333,278 689.333,278 689.333,278 689.333,278 689.333,278 689.333,278 
						689.333,278 689.333,278 689.333,278 689.333,278 689.333,278 689.333,278 689.333,278 689.333,278 689.333,278 689.333,278 
						689.333,278 689.333,278 689.333,278 689.333,278 689.333,278 689.333,278 					"/>
					<polyline fill="#2F2F30" points="689.333,278 689.333,278 689.333,278 689.333,278 689.333,278 689.333,278 689.333,278 					
						"/>
					<polyline fill="#2F2F30" points="689.333,278 689.333,278 689.333,278 					"/>
					<polyline fill="#2F2F30" points="689.333,278 689.333,278 689.333,278 					"/>
					<polyline fill="#454547" points="689.333,278 689.333,278 689.333,278 					"/>
					<polyline fill="#454547" points="689.333,278 689.333,278 689.333,278 689.333,278 689.333,278 689.333,278 					"/>
					<polyline fill="#454547" points="689.333,278 689.333,278 689.333,278 689.333,278 689.333,278 					"/>
					<polyline fill="#808285" points="689.333,278 689.333,278 689.333,278 					"/>
					<polyline fill="#808285" points="689.333,278 689.333,278 689.333,278 					"/>
					<polyline fill="#808285" points="689.333,278 689.333,278 689.333,278 					"/>
					<polyline fill="#808285" points="689.333,278 689.333,278 689.333,278 					"/>
					<polyline fill="#808285" points="689.333,278 689.333,278 689.333,278 					"/>
					<polyline fill="#808285" points="689.333,278 689.333,278 689.333,278 					"/>
					<polyline fill="#808285" points="689.333,278 689.333,278 689.333,278 					"/>
					<polyline fill="#808285" points="689.333,278 689.333,278 689.333,278 					"/>
					<polyline fill="#808285" points="689.333,278 689.333,278 689.333,278 					"/>
					<polyline fill="#808285" points="689.333,278 689.333,278 689.333,278 					"/>
					<polyline fill="#808285" points="689.333,278 689.333,278 689.333,278 					"/>
					<polyline fill="#808285" points="689.333,278 689.333,278 689.333,278 					"/>
					<polyline fill="#808285" points="689.333,278 689.333,278 689.333,278 					"/>
					<polyline fill="#808285" points="689.333,278 689.333,278 689.333,278 					"/>
					<polyline fill="#808285" points="689.333,278 689.333,278 689.333,278 					"/>
					<polyline fill="#808285" points="689.333,278 689.333,278 689.333,278 					"/>
					<polyline fill="#808285" points="689.333,278 689.333,278 689.333,278 					"/>
					<polyline fill="#2D2D2E" points="689.333,278 689.333,278 689.333,278 					"/>
					<polyline fill="#808285" points="689.333,278 689.333,278 689.333,278 					"/>
					<polyline fill="#808285" points="689.333,278 689.333,278 689.333,278 689.333,278 689.333,278 689.333,278 					"/>
					<polyline fill="#808285" points="689.333,278 689.333,278 689.333,278 689.333,278 					"/>
					<polyline fill="#808285" points="689.333,278 689.333,278 689.333,278 689.333,278 689.333,278 					"/>
					<polyline fill="#2D2D2E" points="689.333,278 689.333,278 689.333,278 					"/>
					<polyline fill="#808285" points="689.333,278 689.333,278 689.333,278 689.333,278 					"/>
					<polyline fill="#808285" points="689.333,278 689.333,278 689.333,278 					"/>
					<polyline fill="#808285" points="689.333,278 689.333,278 689.333,278 					"/>
					<polyline fill="#808285" points="689.333,278 689.333,278 689.333,278 					"/>
					<polyline fill="#808285" points="689.333,278 689.333,278 689.333,278 					"/>
					<polyline fill="#808285" points="689.333,278 689.333,278 689.333,278 					"/>
					<polyline fill="#4D4D4F" points="689.333,278 689.333,278 689.333,278 					"/>
					<polyline fill="#404041" points="689.333,278 689.333,278 689.333,278 689.333,278 689.333,278 689.333,278 689.333,278 
						689.333,278 689.333,278 689.333,278 689.333,278 689.333,278 689.333,278 689.333,278 689.333,278 689.333,278 689.333,278 
						689.333,278 689.333,278 689.333,278 689.333,278 689.333,278 					"/>
					<polyline fill="#222222" points="689.333,278 689.333,278 689.333,278 689.333,278 689.333,278 					"/>
					<polyline fill="#222222" points="689.333,278 689.333,278 689.333,278 689.333,278 689.333,278 					"/>
					<polyline fill="#101011" points="689.333,278 689.333,278 689.333,278 689.333,278 689.333,278 					"/>
					<polyline fill="#222222" points="689.333,278 689.333,278 689.333,278 689.333,278 689.333,278 					"/>
					<polyline fill="#404041" points="689.333,278 689.333,278 689.333,278 689.333,278 689.333,278 689.333,278 689.333,278 
						689.333,278 689.333,278 689.333,278 689.333,278 689.333,278 689.333,278 689.333,278 689.333,278 689.333,278 689.333,278 
											"/>
					<polyline fill="#222222" points="689.333,278 689.333,278 689.333,278 689.333,278 689.333,278 					"/>
					<polyline fill="#222222" points="689.333,278 689.333,278 689.333,278 689.333,278 689.333,278 689.333,278 					"/>
					<polyline fill="#2D2D2E" points="689.333,278 689.333,278 689.333,278 					"/>
					<polyline fill="#58595B" points="689.333,278 689.333,278 689.333,278 689.333,278 689.333,278 689.333,278 689.333,278 
						689.333,278 689.333,278 689.333,278 689.333,278 689.333,278 689.333,278 689.333,278 689.333,278 689.333,278 689.333,278 
						689.333,278 689.333,278 689.333,278 689.333,278 689.333,278 689.333,278 689.333,278 689.333,278 689.333,278 689.333,278 
						689.333,278 689.333,278 689.333,278 689.333,278 689.333,278 689.333,278 					"/>
					<polyline fill="#141414" points="689.333,278 689.333,278 689.333,278 689.333,278 689.333,278 689.333,278 689.333,278 
						689.333,278 689.333,278 					"/>
					<polyline fill="#141414" points="689.333,278 689.333,278 689.333,278 689.333,278 					"/>
					<polyline fill="#141414" points="689.333,278 689.333,278 689.333,278 					"/>
					<polyline fill="#2D2D2E" points="689.333,278 689.333,278 689.333,278 689.333,278 689.333,278 					"/>
					<polyline fill="#2D2D2E" points="689.333,278 689.333,278 689.333,278 689.333,278 					"/>
					<polyline fill="#2D2D2E" points="689.333,278 689.333,278 689.333,278 689.333,278 689.333,278 689.333,278 689.333,278 					
						"/>
					<polyline fill="#040404" points="689.333,278 689.333,278 689.333,278 689.333,278 689.333,278 					"/>
					<polyline fill="#040404" points="689.333,278 689.333,278 689.333,278 					"/>
					<polyline fill="#2D2D2E" points="689.333,278 689.333,278 689.333,278 					"/>
					<polyline fill="#141414" points="689.333,278 689.333,278 689.333,278 689.333,278 					"/>
					<polyline fill="#141414" points="689.333,278 689.333,278 689.333,278 689.333,278 689.333,278 					"/>
					<polyline fill="#58595B" points="689.333,278 689.333,278 689.333,278 					"/>
					<polyline fill="#101011" points="689.333,278 689.333,278 689.333,278 					"/>
					<polyline fill="#101011" points="689.333,278 689.333,278 689.333,278 					"/>
					<polyline fill="#4D4D4F" points="689.333,278 689.333,278 689.333,278 689.333,278 					"/>
					<polyline fill="#4D4D4F" points="689.333,278 689.333,278 689.333,278 689.333,278 					"/>
					<polyline fill="#101011" points="689.333,278 689.333,278 689.333,278 689.333,278 689.333,278 689.333,278 					"/>
				</g>
			</g>
		</g>
	</g>
	<rect x="-29.333" y="57.333" fill="none" width="365.333" height="65.321"/>
	
		<text transform="matrix(1 0 0 1 71.9746 96.981)" fill="#ED1C24" stroke="#000000" stroke-width="3" font-family="'MarkerFelt-Wide'" font-size="48">PONTIKI</text>
	<rect x="-42.667" y="107.333" fill="none" width="392" height="104"/>
	<text transform="matrix(1 0 0 1 63.8149 146.9805)"><tspan x="0" y="0" fill="#262262" stroke="#000000" stroke-width="2" font-family="'MarkerFelt-Wide'" font-size="48">software</tspan><tspan x="28.32" y="57.601" fill="#262262" stroke="#000000" stroke-width="2" font-family="'MarkerFelt-Wide'" font-size="48">crafts</tspan></text>
</g>
</svg>
